<svg width="245" height="374" viewBox="0 0 245 374" fill="none" xmlns="http://www.w3.org/2000/svg">
<path d="M127.5 220C142.93 220 158.21 217.155 172.465 211.627C186.721 206.099 199.674 197.996 210.585 187.782C221.496 177.567 230.151 165.441 236.056 152.095C241.961 138.749 245 124.445 245 110C245 95.5546 241.961 81.2506 236.056 67.9048C230.151 54.559 221.496 42.4327 210.585 32.2183C199.674 22.0038 186.721 13.9013 172.465 8.37325C158.21 2.84523 142.93 -6.31429e-07 127.5 0L127.5 59.95C134.521 59.95 141.473 61.2446 147.959 63.7598C154.446 66.2751 160.339 69.9617 165.304 74.6093C170.268 79.2569 174.206 84.7743 176.893 90.8467C179.58 96.919 180.963 103.427 180.963 110C180.963 116.573 179.58 123.081 176.893 129.153C174.206 135.226 170.268 140.743 165.304 145.391C160.339 150.038 154.446 153.725 147.959 156.24C141.473 158.755 134.521 160.05 127.5 160.05L127.5 220Z" fill="black"/>
<path d="M0 220V160H130V220H0Z" fill="black"/>
<path d="M80 60V0H130V60H80Z" fill="black"/>
<rect width="60" height="90" fill="#25A1B0"/>
<path d="M60 90H0L60 130V90Z" fill="#25A1B0"/>
<path d="M65 334H0L65 374V334Z" fill="black"/>
<rect y="220" width="65" height="114" fill="black"/>
</svg>
